<?xml version="1.0" encoding="UTF-8" standalone="no"?>
<svg
   xmlns:dc="http://purl.org/dc/elements/1.1/"
   xmlns:cc="http://creativecommons.org/ns#"
   xmlns:rdf="http://www.w3.org/1999/02/22-rdf-syntax-ns#"
   xmlns:svg="http://www.w3.org/2000/svg"
   xmlns="http://www.w3.org/2000/svg"
   xmlns:sodipodi="http://sodipodi.sourceforge.net/DTD/sodipodi-0.dtd"
   xmlns:inkscape="http://www.inkscape.org/namespaces/inkscape"
   inkscape:export-ydpi="96"
   inkscape:export-xdpi="96"
   inkscape:export-filename="C:\Users\Utilizador\Desktop\proffy.png"
   inkscape:version="1.0 (4035a4fb49, 2020-05-01)"
   sodipodi:docname="proffy.svg"
   id="svg20"
   version="1.1"
   fill="none"
   viewBox="0 0 250 106"
   height="106"
   width="250">
  <metadata
     id="metadata26">
    <rdf:RDF>
      <cc:Work
         rdf:about="">
        <dc:format>image/svg+xml</dc:format>
        <dc:type
           rdf:resource="http://purl.org/dc/dcmitype/StillImage" />
        <dc:title></dc:title>
      </cc:Work>
    </rdf:RDF>
  </metadata>
  <defs
     id="defs24" />
  <sodipodi:namedview
     inkscape:current-layer="svg20"
     inkscape:window-maximized="1"
     inkscape:window-y="-8"
     inkscape:window-x="-8"
     inkscape:cy="69.997098"
     inkscape:cx="35.066629"
     inkscape:zoom="1.6562896"
     showgrid="false"
     id="namedview22"
     inkscape:window-height="1027"
     inkscape:window-width="1920"
     inkscape:pageshadow="2"
     inkscape:pageopacity="0"
     guidetolerance="10"
     gridtolerance="10"
     objecttolerance="10"
     borderopacity="1"
     bordercolor="#666666"
     pagecolor="#ffffff" />
  <g
     transform="translate(0.82930533,-3.108397)"
     id="g50">
    <path
       id="path2"
       fill="#000000"
       d="M 41.082422,23.160637 H 11.154207 c -7.9641669,0 -11.9835129,3.813108 -11.9835129,11.36594 v 40.42268 c 0,0.990033 0.5391262,1.599621 1.7006538,1.599621 H 9.918206 c 1.0826,0 1.779551,-0.609588 1.779551,-1.599621 v -1.534736 c 0,-3.744003 1.599827,-5.78458 5.575342,-6.177979 h 23.809323 c 8.73565,0 12.680463,-3.735366 12.680463,-11.897674 V 35.058326 c 0,-8.162363 -3.944813,-11.897689 -12.680463,-11.897689 z m 0.166527,28.745529 c 0,4.427053 -1.016877,5.339248 -6.355529,5.339248 H 22.212958 c -5.334327,0 -8.740029,1.755243 -10.519579,5.187946 V 37.500995 c 0,-3.432702 0.850288,-4.349272 5.101954,-4.349272 H 34.89342 c 5.338652,0 6.355529,0.91657 6.355529,5.339306 z"
       style="stroke-width:1" />
    <path
       id="path4"
       fill="#000000"
       d="m 82.450596,45.507681 c -6.881329,0 -9.822573,3.432702 -9.822573,9.230235 V 75.10056 c 0,0.916569 -0.46486,1.448318 -1.54723,1.448318 h -8.196425 c -1.082951,0 -1.622124,-0.531749 -1.622124,-1.448318 V 37.881441 c 0,-0.916569 0.539173,-1.452636 1.622124,-1.452636 h 6.881329 c 1.008067,0 1.547239,0.536067 1.547239,1.452636 v 6.005028 c 1.315087,-4.954485 5.106558,-7.474937 11.834663,-7.474937 h 2.783408 c 1.00346,0 1.542631,0.536067 1.542631,1.452579 v 6.195308 c 0,0.990034 -0.539171,1.448262 -1.542631,1.448262 z"
       style="stroke-width:1" />
    <path
       id="path6"
       fill="#000000"
       d="m 135.80252,65.641238 c 0,7.552776 -3.40149,10.90764 -11.51899,10.90764 h -20.10541 c -8.0432,0 -11.523615,-3.354864 -11.523615,-10.90764 V 47.34508 c 0,-7.548457 3.480415,-10.907639 11.523615,-10.907639 h 20.10541 c 8.1175,0 11.51899,3.359182 11.51899,10.907639 z m -11.36577,-15.40384 c 0,-3.968826 -0.77132,-4.729717 -5.56625,-4.729717 h -9.20506 c -4.86923,0 -5.64516,0.760891 -5.64516,4.729717 v 12.507261 c 0,3.964452 0.77593,4.729661 5.64516,4.729661 h 9.20506 c 4.79493,0 5.56625,-0.765209 5.56625,-4.729661 z"
       style="stroke-width:1" />
    <path
       id="path8"
       fill="#000000"
       d="m 147.24664,45.507681 h -3.87039 c -1.00806,0 -1.54722,-0.458228 -1.54722,-1.448262 v -6.177978 c 0,-0.916569 0.53916,-1.452636 1.54722,-1.452636 h 3.86637 v -4.954486 c 0.004,-7.552785 4.02361,-11.365923 11.9879,-11.365923 h 9.51151 c 1.08236,0 1.54722,0.536087 1.54722,1.448301 v 6.177995 c 0,0.994352 -0.46486,1.448261 -1.54722,1.448261 h -5.02362 c -4.25576,0 -5.10599,0.91657 -5.10599,4.349216 v 2.896636 h 10.12961 c 1.08236,0 1.54722,0.536067 1.54722,1.452636 v 6.177978 c 0,0.990034 -0.46486,1.448262 -1.54722,1.448262 H 158.61242 V 75.10056 c 0,0.916569 -0.53917,1.448318 -1.62211,1.448318 h -8.19643 c -1.08237,0 -1.54724,-0.531749 -1.54724,-1.448318 z"
       style="stroke-width:1" />
    <path
       id="path10"
       fill="#000000"
       d="m 178.79675,45.507681 h -3.86176 c -1.00345,0 -1.54262,-0.458228 -1.54262,-1.448262 v -6.177978 c 0,-0.916569 0.53917,-1.452636 1.54262,-1.452636 h 3.8704 v -4.954486 c -0.008,-7.552785 4.01958,-11.365923 11.97463,-11.365923 h 9.51153 c 1.08295,0 1.54723,0.536087 1.54723,1.448301 v 6.177995 c 0,0.994352 -0.46428,1.448261 -1.54723,1.448261 h -5.02707 c -4.25173,0 -5.10195,0.91657 -5.10195,4.349216 v 2.896636 h 10.12902 c 1.08295,0 1.54723,0.536067 1.54723,1.452636 v 6.177978 c 0,0.990034 -0.46428,1.448262 -1.54723,1.448262 H 190.16253 V 75.10056 c 0,0.916569 -0.54378,1.448318 -1.62616,1.448318 h -8.197 c -1.08238,0 -1.54262,-0.531749 -1.54262,-1.448318 z"
       style="stroke-width:1" />
    <path
       id="path12"
       fill="#000000"
       d="m 236.4004,92.108398 h -16.85772 c -7.5743,0 -10.822,-2.896527 -10.822,-10.069082 v -0.760778 c -0.0225,-0.204541 0.001,-0.411922 0.072,-0.605668 0.0698,-0.194314 0.18259,-0.370445 0.33122,-0.515329 0.14803,-0.144882 0.32718,-0.255108 0.52476,-0.322151 0.19759,-0.06705 0.40726,-0.08977 0.61463,-0.06591 h 7.88997 c 1.08238,0 1.62155,0.536352 1.62155,1.526101 v 0.380673 c 0,1.526099 0.85484,2.135745 2.5553,2.135745 h 9.74366 c 4.63767,0 5.79896,-1.14145 5.79896,-5.032267 V 66.747974 c -1.77938,3.432703 -5.18087,5.187945 -10.51959,5.187945 h -7.88939 c -8.0432,0 -11.60253,-3.354864 -11.60253,-10.907639 V 37.881441 c -0.0104,-0.199882 0.023,-0.39965 0.0985,-0.585555 0.0749,-0.185962 0.19009,-0.353629 0.33697,-0.491636 0.14689,-0.137952 0.32201,-0.242949 0.51441,-0.307777 0.19182,-0.06482 0.39574,-0.08789 0.59735,-0.06766 h 8.27591 c 1.00346,0 1.54725,0.536067 1.54725,1.452636 v 20.27185 c 0,3.964451 0.85021,4.729661 5.64514,4.729661 h 5.87788 c 5.10196,0 7.11405,-2.062167 7.11405,-6.255762 V 37.881445 c 0,-0.916569 0.53917,-1.452636 1.54724,-1.452636 h 8.27938 c 0.19815,-0.01886 0.39803,0.0058 0.58525,0.07221 0.18721,0.06636 0.35713,0.172836 0.49711,0.311754 0.14056,0.138917 0.24827,0.306811 0.31452,0.491579 0.0668,0.184768 0.0916,0.381866 0.072,0.577089 v 42.099966 c -0.004,8.002655 -4.33526,12.12699 -12.76382,12.12699 z"
       style="stroke-width:1" />
  </g>
</svg>
